<mxfile host="Electron" modified="2023-07-27T08:57:28.716Z" agent="Mozilla/5.0 (Windows NT 10.0; Win64; x64) AppleWebKit/537.36 (KHTML, like Gecko) draw.io/21.6.5 Chrome/114.0.5735.243 Electron/25.3.1 Safari/537.36" etag="g7gJOps_jcjZVB5x8PTU" version="21.6.5" type="device">
  <diagram name="Page-1" id="QBp8WdPGR4rIRa1KPz0J">
    <mxGraphModel dx="1098" dy="820" grid="1" gridSize="10" guides="1" tooltips="1" connect="1" arrows="1" fold="1" page="1" pageScale="1" pageWidth="850" pageHeight="1100" math="0" shadow="0">
      <root>
        <mxCell id="0" />
        <mxCell id="1" parent="0" />
        <mxCell id="BwD4rhGEozCp9PoID0jO-3" style="edgeStyle=orthogonalEdgeStyle;rounded=0;orthogonalLoop=1;jettySize=auto;html=1;" edge="1" parent="1" source="BwD4rhGEozCp9PoID0jO-1">
          <mxGeometry relative="1" as="geometry">
            <mxPoint x="410" y="170" as="targetPoint" />
          </mxGeometry>
        </mxCell>
        <mxCell id="BwD4rhGEozCp9PoID0jO-1" value="Start" style="rounded=1;whiteSpace=wrap;html=1;" vertex="1" parent="1">
          <mxGeometry x="350" y="40" width="120" height="60" as="geometry" />
        </mxCell>
        <mxCell id="BwD4rhGEozCp9PoID0jO-5" style="edgeStyle=orthogonalEdgeStyle;rounded=0;orthogonalLoop=1;jettySize=auto;html=1;" edge="1" parent="1" source="BwD4rhGEozCp9PoID0jO-4">
          <mxGeometry relative="1" as="geometry">
            <mxPoint x="410" y="300" as="targetPoint" />
          </mxGeometry>
        </mxCell>
        <mxCell id="BwD4rhGEozCp9PoID0jO-4" value="Input a,b,c,d,e,f" style="shape=parallelogram;perimeter=parallelogramPerimeter;whiteSpace=wrap;html=1;fixedSize=1;" vertex="1" parent="1">
          <mxGeometry x="350" y="170" width="120" height="60" as="geometry" />
        </mxCell>
        <mxCell id="BwD4rhGEozCp9PoID0jO-9" style="edgeStyle=orthogonalEdgeStyle;rounded=0;orthogonalLoop=1;jettySize=auto;html=1;exitX=0.5;exitY=1;exitDx=0;exitDy=0;entryX=0.5;entryY=0;entryDx=0;entryDy=0;" edge="1" parent="1" source="BwD4rhGEozCp9PoID0jO-8" target="BwD4rhGEozCp9PoID0jO-11">
          <mxGeometry relative="1" as="geometry">
            <mxPoint x="380" y="530" as="targetPoint" />
            <mxPoint x="280" y="530" as="sourcePoint" />
          </mxGeometry>
        </mxCell>
        <mxCell id="BwD4rhGEozCp9PoID0jO-10" value="TRUE" style="edgeLabel;html=1;align=center;verticalAlign=middle;resizable=0;points=[];" vertex="1" connectable="0" parent="BwD4rhGEozCp9PoID0jO-9">
          <mxGeometry x="0.005" y="-2" relative="1" as="geometry">
            <mxPoint x="-2" as="offset" />
          </mxGeometry>
        </mxCell>
        <mxCell id="BwD4rhGEozCp9PoID0jO-20" style="edgeStyle=orthogonalEdgeStyle;rounded=0;orthogonalLoop=1;jettySize=auto;html=1;entryX=0.5;entryY=0;entryDx=0;entryDy=0;" edge="1" parent="1" source="BwD4rhGEozCp9PoID0jO-8" target="BwD4rhGEozCp9PoID0jO-23">
          <mxGeometry relative="1" as="geometry">
            <mxPoint x="240" y="340" as="targetPoint" />
          </mxGeometry>
        </mxCell>
        <mxCell id="BwD4rhGEozCp9PoID0jO-21" value="FALSE" style="edgeLabel;html=1;align=center;verticalAlign=middle;resizable=0;points=[];" vertex="1" connectable="0" parent="BwD4rhGEozCp9PoID0jO-20">
          <mxGeometry x="-0.0345" y="-2" relative="1" as="geometry">
            <mxPoint as="offset" />
          </mxGeometry>
        </mxCell>
        <mxCell id="BwD4rhGEozCp9PoID0jO-8" value="a*e-b*d=0" style="rhombus;whiteSpace=wrap;html=1;" vertex="1" parent="1">
          <mxGeometry x="370" y="300" width="80" height="80" as="geometry" />
        </mxCell>
        <mxCell id="BwD4rhGEozCp9PoID0jO-12" style="edgeStyle=orthogonalEdgeStyle;rounded=0;orthogonalLoop=1;jettySize=auto;html=1;entryX=0.5;entryY=0;entryDx=0;entryDy=0;" edge="1" parent="1" source="BwD4rhGEozCp9PoID0jO-11" target="BwD4rhGEozCp9PoID0jO-16">
          <mxGeometry relative="1" as="geometry">
            <mxPoint x="420" y="610" as="targetPoint" />
          </mxGeometry>
        </mxCell>
        <mxCell id="BwD4rhGEozCp9PoID0jO-14" value="TRUE" style="edgeLabel;html=1;align=center;verticalAlign=middle;resizable=0;points=[];" vertex="1" connectable="0" parent="BwD4rhGEozCp9PoID0jO-12">
          <mxGeometry x="-0.3044" y="3" relative="1" as="geometry">
            <mxPoint as="offset" />
          </mxGeometry>
        </mxCell>
        <mxCell id="BwD4rhGEozCp9PoID0jO-13" style="edgeStyle=orthogonalEdgeStyle;rounded=0;orthogonalLoop=1;jettySize=auto;html=1;entryX=0;entryY=0.5;entryDx=0;entryDy=0;" edge="1" parent="1" source="BwD4rhGEozCp9PoID0jO-11" target="BwD4rhGEozCp9PoID0jO-17">
          <mxGeometry relative="1" as="geometry">
            <mxPoint x="570" y="490" as="targetPoint" />
          </mxGeometry>
        </mxCell>
        <mxCell id="BwD4rhGEozCp9PoID0jO-15" value="FALSE" style="edgeLabel;html=1;align=center;verticalAlign=middle;resizable=0;points=[];" vertex="1" connectable="0" parent="BwD4rhGEozCp9PoID0jO-13">
          <mxGeometry x="-0.0407" y="-1" relative="1" as="geometry">
            <mxPoint as="offset" />
          </mxGeometry>
        </mxCell>
        <mxCell id="BwD4rhGEozCp9PoID0jO-11" value="f/c=d/a" style="rhombus;whiteSpace=wrap;html=1;" vertex="1" parent="1">
          <mxGeometry x="370" y="460" width="80" height="80" as="geometry" />
        </mxCell>
        <mxCell id="BwD4rhGEozCp9PoID0jO-44" style="edgeStyle=orthogonalEdgeStyle;rounded=0;orthogonalLoop=1;jettySize=auto;html=1;entryX=0;entryY=0.5;entryDx=0;entryDy=0;" edge="1" parent="1" source="BwD4rhGEozCp9PoID0jO-16" target="BwD4rhGEozCp9PoID0jO-45">
          <mxGeometry relative="1" as="geometry">
            <mxPoint x="540" y="660" as="targetPoint" />
          </mxGeometry>
        </mxCell>
        <mxCell id="BwD4rhGEozCp9PoID0jO-16" value="Print vo so nghiem" style="shape=parallelogram;perimeter=parallelogramPerimeter;whiteSpace=wrap;html=1;fixedSize=1;" vertex="1" parent="1">
          <mxGeometry x="350" y="630" width="120" height="60" as="geometry" />
        </mxCell>
        <mxCell id="BwD4rhGEozCp9PoID0jO-46" style="edgeStyle=orthogonalEdgeStyle;rounded=0;orthogonalLoop=1;jettySize=auto;html=1;entryX=0.583;entryY=-0.017;entryDx=0;entryDy=0;entryPerimeter=0;" edge="1" parent="1" source="BwD4rhGEozCp9PoID0jO-17" target="BwD4rhGEozCp9PoID0jO-45">
          <mxGeometry relative="1" as="geometry" />
        </mxCell>
        <mxCell id="BwD4rhGEozCp9PoID0jO-17" value="Print vo nghiem" style="shape=parallelogram;perimeter=parallelogramPerimeter;whiteSpace=wrap;html=1;fixedSize=1;" vertex="1" parent="1">
          <mxGeometry x="580" y="470" width="120" height="60" as="geometry" />
        </mxCell>
        <mxCell id="BwD4rhGEozCp9PoID0jO-24" style="edgeStyle=orthogonalEdgeStyle;rounded=0;orthogonalLoop=1;jettySize=auto;html=1;" edge="1" parent="1" source="BwD4rhGEozCp9PoID0jO-23" target="BwD4rhGEozCp9PoID0jO-25">
          <mxGeometry relative="1" as="geometry">
            <mxPoint x="160" y="450" as="targetPoint" />
          </mxGeometry>
        </mxCell>
        <mxCell id="BwD4rhGEozCp9PoID0jO-23" value="&lt;div&gt;X = (c*e – b*f)/(a*e – b*d)&lt;/div&gt;&lt;div&gt;Y = (a*f – c*d)/(a*e – b*d)&lt;/div&gt;" style="rounded=0;whiteSpace=wrap;html=1;" vertex="1" parent="1">
          <mxGeometry x="100" y="440" width="160" height="80" as="geometry" />
        </mxCell>
        <mxCell id="BwD4rhGEozCp9PoID0jO-43" style="edgeStyle=orthogonalEdgeStyle;rounded=0;orthogonalLoop=1;jettySize=auto;html=1;entryX=0.5;entryY=1;entryDx=0;entryDy=0;" edge="1" parent="1" target="BwD4rhGEozCp9PoID0jO-45">
          <mxGeometry relative="1" as="geometry">
            <mxPoint x="602" y="690" as="targetPoint" />
            <mxPoint x="230" y="739.5" as="sourcePoint" />
          </mxGeometry>
        </mxCell>
        <mxCell id="BwD4rhGEozCp9PoID0jO-25" value="Print X,Y" style="shape=parallelogram;perimeter=parallelogramPerimeter;whiteSpace=wrap;html=1;fixedSize=1;" vertex="1" parent="1">
          <mxGeometry x="120" y="710" width="120" height="60" as="geometry" />
        </mxCell>
        <mxCell id="BwD4rhGEozCp9PoID0jO-45" value="End" style="rounded=1;whiteSpace=wrap;html=1;" vertex="1" parent="1">
          <mxGeometry x="570" y="630" width="120" height="60" as="geometry" />
        </mxCell>
      </root>
    </mxGraphModel>
  </diagram>
</mxfile>
